<svg xmlns="http://www.w3.org/2000/svg" width="48" height="48.002" viewBox="0 0 48 48.002"><path d="M13,26A13,13,0,1,1,26,13,13.015,13.015,0,0,1,13,26ZM10.5,16a1.5,1.5,0,1,0,0,3h1v.5a1.5,1.5,0,0,0,3,0v-.73a3.741,3.741,0,0,0-1.25-7.27h-.5a.75.75,0,1,1,0-1.5H15.5a1.5,1.5,0,1,0,0-3h-1V6.5a1.5,1.5,0,0,0-3,0v.73a3.741,3.741,0,0,0,1.25,7.27h.5a.75.75,0,1,1,0,1.5Z" transform="translate(22 22.001)" fill="#f7a804"/><path d="M34,4a2,2,0,1,0-4,0v4L22.4.572a2,2,0,0,0-2.8,0L.878,18.876A3.046,3.046,0,0,0,0,21a3,3,0,0,0,3,3H6V35a5.006,5.006,0,0,0,5,5h5a2,2,0,0,0,0-4H11a1,1,0,0,1-1-1V22a2,2,0,0,0-2-2H5.446L21,4.8,34.1,17.61a2,2,0,1,0,2.8-2.86L34,11.918Z" fill="#3b3c45"/></svg>