<svg xmlns="http://www.w3.org/2000/svg" width="48.97" height="48.592" viewBox="0 0 48.97 48.592"><g transform="translate(0.484)"><path d="M39.553,17.76,24,4.868,8.448,17.76v6.785H4.7V20.867L2.392,22.781,0,19.9,24,0,48,19.9l-2.392,2.885L43.3,20.867v3.678H39.553Z" fill="#3b3c45"/><path d="M27.747,736.239H24V716h5.621a5.622,5.622,0,0,1,2.43,10.69l3.254,9.546H31.347l-3.066-8.995h-.533v8.995h0Zm.032-12.743h1.874a1.874,1.874,0,0,0,0-3.748H27.779Zm37.352,12.742V719.747H62.039V716H71.97v3.747H68.879v16.491Zm-9.183,0v-.043l-.075.027-3.391-9.339v9.355H48.735V716h3.748v.137l.075-.027,3.391,9.338V716H59.7v20.237Zm-18.269,0V716h8.526v3.747H41.426V723.5h4.779v3.748H41.426v5.246h4.779v3.748Z" transform="translate(-23.985 -688.269)" fill="#f7a804" stroke="rgba(0,0,0,0)" stroke-width="1"/></g></svg>