<svg xmlns="http://www.w3.org/2000/svg" width="48.492" height="49" viewBox="0 0 48.492 49"><g transform="translate(0.5 0.5)"><path d="M12.422,2.279,9.178,16.988a7.535,7.535,0,0,1-2.613,4.228,7.49,7.49,0,0,1-4.69,1.656,1.875,1.875,0,0,1,0-3.749A3.714,3.714,0,0,0,5.517,16.18L8.761,1.472a1.875,1.875,0,1,1,3.661.807Z" transform="translate(35.525 10.225)" fill="#3b3c45"/><path d="M337.4,764.991a5.526,5.526,0,0,1-5.234-7.311h-8.09a5.53,5.53,0,1,1-10.469,0h-.765a5.63,5.63,0,0,1-5.623-5.624c0-.008,0-.016,0-.024s0-.016,0-.023,0-.016,0-.024,0-.016,0-.024a5.641,5.641,0,0,1,3.307-5.123L308.3,726.367a6.5,6.5,0,0,0-6.422-5.618,1.874,1.874,0,1,1,0-3.749,10.256,10.256,0,0,1,10.142,8.9l0,.041,2.221,20.4h13.783a1.875,1.875,0,1,1,0,3.749H312.841a1.876,1.876,0,0,0-1.875,1.874c0,.008,0,.016,0,.024s0,.016,0,.024,0,.014,0,.021,0,.018,0,.026a1.877,1.877,0,0,0,1.875,1.875H337.4a5.53,5.53,0,1,1,0,11.06Zm0-7.311a1.781,1.781,0,1,0,1.781,1.78A1.782,1.782,0,0,0,337.4,757.68Zm-18.559,0a1.781,1.781,0,1,0,1.781,1.78A1.783,1.783,0,0,0,318.84,757.68Z" transform="translate(-300 -716.991)" fill="#3b3c45" stroke="rgba(0,0,0,0)" stroke-width="1"/><path d="M317.686,739.88h-9.6a5.286,5.286,0,0,1-5.278-5.282v-5.28a1.875,1.875,0,0,1-2.2-3.013l8.736-7.906a5.289,5.289,0,0,1,7.166,0l8.735,7.906a1.874,1.874,0,0,1-2.29,2.954v5.34A5.286,5.286,0,0,1,317.686,739.88Zm-4.752-19.124a1.566,1.566,0,0,0-1.057.413l-.006.006-5.316,4.811,0,.022c0,.03,0,.061,0,.092v8.5a1.532,1.532,0,0,0,1.528,1.533h9.6a1.532,1.532,0,0,0,1.528-1.533v-8.5a1.754,1.754,0,0,1,.011-.2L314,721.175l-.006-.006A1.565,1.565,0,0,0,312.935,720.756Z" transform="translate(-284.722 -717)" fill="#f7a804" stroke="rgba(0,0,0,0)" stroke-miterlimit="10" stroke-width="1"/><path d="M37.4,48a5.526,5.526,0,0,1-5.234-7.311h-8.09a5.531,5.531,0,1,1-10.469,0h-.765a5.63,5.63,0,0,1-5.624-5.624c0-.008,0-.016,0-.023s0-.015,0-.023,0-.015,0-.022,0-.016,0-.024a5.642,5.642,0,0,1,3.307-5.123L8.3,9.375A6.5,6.5,0,0,0,1.875,3.758a1.875,1.875,0,1,1,0-3.749,10.258,10.258,0,0,1,10.142,8.9l0,.041,2.22,20.4H28.026a1.875,1.875,0,0,1,0,3.749H12.841a1.877,1.877,0,0,0-1.875,1.875c0,.008,0,.016,0,.024s0,.015,0,.023,0,.016,0,.024,0,.015,0,.023a1.877,1.877,0,0,0,1.875,1.875H37.4A5.53,5.53,0,0,1,37.4,48Zm0-7.311a1.781,1.781,0,1,0,1.781,1.781A1.783,1.783,0,0,0,37.4,40.689Zm-18.56,0a1.781,1.781,0,1,0,1.781,1.781A1.783,1.783,0,0,0,18.84,40.689ZM37.4,33.1a1.875,1.875,0,1,1,0-3.749,3.713,3.713,0,0,0,3.641-2.941L44.285,11.7a1.875,1.875,0,0,1,3.661.808L44.7,27.213A7.477,7.477,0,0,1,37.4,33.1ZM32.965,22.88h-9.6A5.285,5.285,0,0,1,18.091,17.6V12.317a1.876,1.876,0,0,1-2.327-.365,1.873,1.873,0,0,1,.131-2.647L24.63,1.4a5.289,5.289,0,0,1,7.166,0l8.735,7.907a1.873,1.873,0,0,1-2.289,2.953V17.6A5.285,5.285,0,0,1,32.965,22.88ZM28.214,3.756a1.567,1.567,0,0,0-1.057.412l0,0L21.834,8.986c0,.012,0,.025,0,.038s0,.052,0,.077v8.5a1.532,1.532,0,0,0,1.528,1.533h9.6A1.532,1.532,0,0,0,34.493,17.6V9.1c0-.063,0-.127.01-.2l-5.226-4.73-.007-.006A1.564,1.564,0,0,0,28.214,3.756Z" transform="translate(0 0)" fill="none"/><path d="M12.422,2.279,9.178,16.988a7.535,7.535,0,0,1-2.613,4.228,7.49,7.49,0,0,1-4.69,1.656,1.875,1.875,0,0,1,0-3.749A3.714,3.714,0,0,0,5.517,16.18L8.761,1.472a1.875,1.875,0,1,1,3.661.807Z" transform="translate(35.525 10.225)" fill="none"/><path d="M42.929,42.461A5.53,5.53,0,1,1,32.165,40.68h-8.09a5.53,5.53,0,1,1-10.469,0h-.765a5.631,5.631,0,0,1-5.624-5.624c0-.016,0-.031,0-.047s0-.031,0-.047a5.631,5.631,0,0,1,3.308-5.123L8.3,9.366A6.5,6.5,0,0,0,1.875,3.749,1.875,1.875,0,0,1,1.875,0,10.257,10.257,0,0,1,12.017,8.9l0,.041,2.221,20.4H28.026a1.875,1.875,0,1,1,0,3.749H12.841a1.877,1.877,0,0,0-1.875,1.875c0,.016,0,.031,0,.047s0,.031,0,.047a1.877,1.877,0,0,0,1.875,1.875H37.4A5.536,5.536,0,0,1,42.929,42.461Z" transform="translate(0 0.009)" fill="none"/><path d="M1.781,0A1.781,1.781,0,1,0,3.562,1.781,1.783,1.783,0,0,0,1.781,0Z" transform="translate(17.059 40.689)" fill="none"/><path d="M3.562,1.781A1.781,1.781,0,1,0,1.781,3.562,1.783,1.783,0,0,0,3.562,1.781Z" transform="translate(35.618 40.689)" fill="none"/><path d="M.485,11.952A1.875,1.875,0,0,1,.617,9.3L9.352,1.4a5.289,5.289,0,0,1,7.166,0L25.253,9.3a1.874,1.874,0,0,1-2.289,2.954V17.6a5.286,5.286,0,0,1-5.278,5.281h-9.6A5.286,5.286,0,0,1,2.812,17.6V12.318A1.875,1.875,0,0,1,.485,11.952Z" transform="translate(15.278)" fill="none"/><path d="M0,5.23c0,.038.006.076.006.115v8.5a1.532,1.532,0,0,0,1.528,1.533h9.6a1.532,1.532,0,0,0,1.528-1.533v-8.5a1.906,1.906,0,0,1,.01-.2L7.443.419,7.436.413a1.559,1.559,0,0,0-2.113,0L5.316.419Z" transform="translate(21.834 3.756)" fill="none"/></g></svg>